<svg width="33" height="32" viewBox="0 0 33 32" fill="none" xmlns="http://www.w3.org/2000/svg">
  <path d="M29.8126 14.2975L24.1751 19.2175L25.8638 26.5425C25.9532 26.9254 25.9277 27.3262 25.7905 27.6947C25.6533 28.0632 25.4106 28.3831 25.0926 28.6144C24.7746 28.8457 24.3954 28.9782 24.0026 28.9951C23.6097 29.0121 23.2206 28.913 22.8838 28.71L16.4951 24.835L10.1201 28.71C9.78327 28.913 9.39412 29.0121 9.00127 28.9951C8.60842 28.9782 8.22929 28.8457 7.9113 28.6144C7.5933 28.3831 7.35054 28.0632 7.21336 27.6947C7.07619 27.3262 7.05069 26.9254 7.14005 26.5425L8.8263 19.225L3.18755 14.2975C2.88931 14.0403 2.67365 13.7007 2.56762 13.3214C2.46159 12.9421 2.4699 12.54 2.59152 12.1654C2.71313 11.7908 2.94264 11.4604 3.25125 11.2158C3.55986 10.9711 3.93385 10.823 4.3263 10.79L11.7588 10.1462L14.6601 3.22624C14.8116 2.86314 15.0671 2.55298 15.3945 2.33482C15.722 2.11665 16.1066 2.00024 16.5001 2.00024C16.8935 2.00024 17.2781 2.11665 17.6056 2.33482C17.933 2.55298 18.1885 2.86314 18.3401 3.22624L21.2501 10.1462L28.6801 10.79C29.0725 10.823 29.4465 10.9711 29.7551 11.2158C30.0637 11.4604 30.2932 11.7908 30.4148 12.1654C30.5365 12.54 30.5448 12.9421 30.4387 13.3214C30.3327 13.7007 30.117 14.0403 29.8188 14.2975H29.8126Z" fill="#E3E1E4"/>
</svg>